<?xml version="1.0" encoding="UTF-8"?>
<svg version="1.1" xmlns="http://www.w3.org/2000/svg" width="2400" height="2400">
<path d="M0 0 C1.38827507 0.00222704 2.77655022 0.00440331 4.16482544 0.00653076 C28.41952944 0.05784595 52.47508609 1.00627793 76.625 3.3125 C78.28583618 3.46875854 78.28583618 3.46875854 79.98022461 3.62817383 C88.59517349 4.4415541 97.20461933 5.30267316 105.8125 6.1875 C107.55308182 6.36276215 107.55308182 6.36276215 109.3288269 6.54156494 C121.73021484 7.80584358 133.98820745 9.38820962 146.22265625 11.8046875 C147.23418259 12.00367645 148.24570892 12.20266541 149.28788757 12.40768433 C170.74908159 16.86239377 189.64499702 27.86114288 201.9375 46.4375 C218.68414208 75.0152718 211.16918291 108.09143476 203.375 138.1875 C202.14259701 142.90055231 200.88925472 147.60788983 199.625 152.3125 C195.05974356 153.67549429 191.357926 152.81675115 186.86328125 151.6875 C185.27680898 151.30989528 183.6902145 150.93280376 182.10351562 150.55615234 C180.84535034 150.25218536 180.84535034 150.25218536 179.56176758 149.94207764 C142.70673769 141.10033344 105.38111017 136.1541302 67.7890625 131.59765625 C66.71814362 131.46679123 65.64722473 131.33592621 64.54385376 131.20109558 C63.06349136 131.02433037 63.06349136 131.02433037 61.55322266 130.84399414 C60.26431625 130.68913292 60.26431625 130.68913292 58.94937134 130.53114319 C56.35036869 130.25006527 56.35036869 130.25006527 52.625 130.3125 C53.31537354 130.99763672 54.00574707 131.68277344 54.71704102 132.38867188 C57.31212127 134.96545983 59.90373292 137.54571362 62.49438477 140.12695312 C63.6096729 141.23725584 64.72586211 142.34665429 65.84301758 143.45507812 C67.46160962 145.0613477 69.07678072 146.67099442 70.69140625 148.28125 C71.18024796 148.76493042 71.66908966 149.24861084 72.17274475 149.74694824 C74.8096127 152.38340124 77.30855957 155.08410264 79.73022461 157.91992188 C84.28121268 163.16843129 89.2245357 168.02380632 94.1517334 172.91439819 C95.912525 174.66224922 97.67001864 176.41335972 99.42675781 178.1652832 C103.15668125 181.88386351 106.89053437 185.59848204 110.625 189.3125 C114.95773773 193.62151429 119.28878153 197.93220377 123.61560059 202.24716187 C125.33444044 203.9595917 127.05629812 205.66894512 128.77832031 207.37817383 C133.76423338 212.3410191 138.65328722 217.33344888 143.22460938 222.68725586 C145.05360709 224.80992633 147.00212545 226.78657156 149 228.75 C149.75796875 229.50023437 150.5159375 230.25046875 151.296875 231.0234375 C152.06515625 231.77882813 152.8334375 232.53421875 153.625 233.3125 C158.61303443 238.21684258 163.47237375 243.14872514 168.02978516 248.45849609 C169.49623725 250.16284829 170.99436803 251.82931813 172.51171875 253.48828125 C186.21758642 268.70307393 197.27147545 286.42798024 202.625 306.3125 C204.67787996 299.44619888 206.00230712 292.4993303 207.28442383 285.4543457 C207.68228071 283.27854329 208.09181393 281.10515642 208.50195312 278.93164062 C210.14438197 270.05146679 211.20210214 261.34713604 211.625 252.3125 C210.2644751 251.87466187 210.2644751 251.87466187 208.87646484 251.42797852 C197.3034314 247.45762337 185.44765465 241.37428525 179.52734375 230.25 C173.74149792 216.47161365 177.08696912 200.01303133 181.625 186.3125 C185.87130884 176.94669769 192.00859679 171.00621779 201.625 167.3125 C212.02942372 164.10199211 222.83438455 163.28103465 233.625 162.3125 C233.72522461 161.39774902 233.82544922 160.48299805 233.92871094 159.54052734 C242.16393882 85.11535563 242.16393882 85.11535563 265.25390625 66.03125 C309.59499078 33.88944244 380.43166097 43.77193244 432.1875 44.75 C433.78550949 44.77933624 433.78550949 44.77933624 435.415802 44.80926514 C449.50055115 45.07407796 463.55761517 45.56301195 477.625 46.3125 C475.10827802 59.4958986 472.56599715 72.67354923 469.94140625 85.8359375 C464.74362608 111.9420534 459.81754256 138.02412504 455.625 164.3125 C468.495 164.3125 481.365 164.3125 494.625 164.3125 C499.21497722 192.74074601 499.21497722 192.74074601 499.625 206.3125 C500.31722656 205.69503906 501.00945313 205.07757812 501.72265625 204.44140625 C542.67851573 168.98949626 599.73696696 163.25077705 651.625 159.3125 C652.50881348 159.24434082 653.39262695 159.17618164 654.30322266 159.10595703 C659.40834668 158.72692491 664.51017128 158.49719441 669.625 158.3125 C671.29925049 158.24699951 671.29925049 158.24699951 673.00732422 158.18017578 C876.63223673 150.4751689 876.63223673 150.4751689 926.4375 196.625 C937.08787638 208.10911796 944.14817755 222.09377716 947.625 237.3125 C947.73495655 234.24898842 947.81322303 231.18957894 947.875 228.125 C947.90851563 227.28001953 947.94203125 226.43503906 947.9765625 225.56445312 C948.16372667 213.07124492 942.81182855 201.92170041 937.875 190.6875 C936.87531767 188.40578232 935.88028304 186.12202089 934.890625 183.8359375 C934.45524414 182.84513184 934.01986328 181.85432617 933.57128906 180.83349609 C932.625 178.3125 932.625 178.3125 932.625 175.3125 C1074.32172347 148.66926578 1074.32172347 148.66926578 1132.625 166.3125 C1132.9653125 165.8278125 1133.305625 165.343125 1133.65625 164.84375 C1143.00508551 151.91450941 1153.9618716 144.13995619 1169.625 140.3125 C1175.42408167 139.46685091 1181.16190527 139.1635595 1187.015625 139.1796875 C1187.7902861 139.17823227 1188.5649472 139.17677704 1189.36308289 139.17527771 C1191.86710583 139.17304684 1194.37099074 139.17928759 1196.875 139.1875 C1198.16423874 139.19032486 1198.16423874 139.19032486 1199.47952271 139.19320679 C1264.74451042 139.36044231 1264.74451042 139.36044231 1279.32421875 152.80078125 C1286.14915501 160.25143323 1290.35552165 167.15667321 1291.625 177.3125 C1297.1738604 176.68448159 1302.56682237 175.7813588 1308.0234375 174.60546875 C1309.63989285 174.26418267 1311.25643268 173.92329654 1312.87304688 173.58276367 C1313.70956787 173.40570892 1314.54608887 173.22865417 1315.40795898 173.04623413 C1331.74205529 169.60406603 1348.05358057 166.39772858 1364.625 164.3125 C1365.77677734 164.16441895 1366.92855469 164.01633789 1368.11523438 163.86376953 C1410.18985151 158.63539616 1462.27685612 155.49370756 1498.73828125 181.05078125 C1506.97612514 187.50505948 1514.10073205 194.76723438 1518.625 204.3125 C1518.93219971 204.95533936 1519.23939941 205.59817871 1519.5559082 206.26049805 C1523.05895982 214.20281212 1524.42378638 222.51571088 1525.9375 231 C1526.23230551 232.60847286 1526.52797674 234.21678726 1526.82446289 235.82495117 C1527.60794304 240.09152605 1528.37776757 244.36044498 1529.14343262 248.63024902 C1529.63534582 251.3701245 1530.13022555 254.10944929 1530.62597656 256.84863281 C1532.64386028 268.00003125 1534.64353307 279.1545748 1536.625 290.3125 C1539.20794653 287.80826786 1541.51560492 285.28859039 1543.65625 282.3984375 C1544.2136084 281.64667236 1544.7709668 280.89490723 1545.34521484 280.12036133 C1546.2262085 278.91609497 1546.2262085 278.91609497 1547.125 277.6875 C1547.73939941 276.84791748 1548.35379883 276.00833496 1548.98681641 275.14331055 C1558.68845216 261.79762747 1568.00800132 248.49066707 1574.625 233.3125 C1575.00140625 232.47460938 1575.3778125 231.63671875 1575.765625 230.7734375 C1577.50857973 225.67436781 1576.12485601 222.61699548 1573.875 217.8125 C1573.31167969 216.70132812 1572.74835938 215.59015625 1572.16796875 214.4453125 C1568.45779914 206.91225927 1567.75938057 199.51460199 1569.625 191.3125 C1573.32150056 181.09276316 1578.78524706 174.77630816 1588.25 169.625 C1633.83812563 148.52579163 1718.94511322 147.94209506 1765.95703125 164.11474609 C1780.11091013 169.41005673 1792.32083452 177.68840382 1799.5 191.375 C1805.25087774 204.03854896 1805.45735194 218.23767486 1800.625 231.3125 C1796.37219774 241.32414274 1790.89850356 250.44331325 1784.625 259.3125 C1783.54738307 260.85361176 1782.47063112 262.39532855 1781.39453125 263.9375 C1778.98023303 267.39413855 1776.56014865 270.84663365 1774.13671875 274.296875 C1771.10601453 278.6173277 1768.10650134 282.95799729 1765.125 287.3125 C1759.28881337 295.8297118 1753.36152529 304.28238771 1747.43212891 312.73486328 C1745.0407091 316.14591575 1742.65374391 319.56007447 1740.26660156 322.97412109 C1730.75599749 336.57233968 1721.21671164 350.14480891 1711.48022461 363.58251953 C1707.8247434 368.63355145 1704.21143509 373.71225225 1700.625 378.8125 C1694.90607688 386.94216628 1689.0938872 395.00211173 1683.26171875 403.05078125 C1681.63990936 405.29189733 1680.02234868 407.53601315 1678.40625 409.78125 C1671.13336403 419.88198957 1663.77991195 429.92047431 1656.38232422 439.93017578 C1654.6474021 442.2821305 1652.91844856 444.63834839 1651.19140625 446.99609375 C1643.65833441 457.27138356 1635.99293022 467.43760281 1628.25390625 477.55859375 C1625.39796144 481.29441886 1622.56429304 485.04521885 1619.75 488.8125 C1615.51659396 494.47578512 1611.20727753 500.07899588 1606.88671875 505.67578125 C1605.64059654 507.29226796 1604.39783533 508.91127676 1603.15625 510.53125 C1594.4183653 521.92894264 1585.55720384 533.21553514 1576.47045898 544.33764648 C1572.87835078 548.74247784 1569.36044695 553.19803257 1565.875 557.6875 C1562.03940239 562.61633225 1558.02419012 567.30026064 1553.79296875 571.8984375 C1551.53947008 574.40773872 1549.42338854 576.99491626 1547.3125 579.625 C1543.40944241 584.45084704 1539.2935861 589.02208706 1535.04956055 593.54614258 C1532.46466658 596.30374465 1529.94415393 599.094732 1527.484375 601.96484375 C1523.05078403 607.05321773 1518.31813265 611.84167514 1513.55712891 616.62060547 C1512.0164109 618.17098618 1510.48675756 619.73175242 1508.95703125 621.29296875 C1500.07478628 630.27183418 1490.58360354 638.94152475 1479.0625 644.375 C1477.92683594 644.92285156 1476.79117187 645.47070312 1475.62109375 646.03515625 C1467.22452462 649.6149191 1457.41643983 649.63880943 1448.8125 646.625 C1447.06674962 645.89249948 1445.33600941 645.12283831 1443.625 644.3125 C1442.85671875 643.95027344 1442.0884375 643.58804688 1441.296875 643.21484375 C1395.66700938 619.68195851 1374.47068598 557.94516427 1359.83984375 512.50390625 C1353.25482485 491.4580114 1348.20231056 470.04697798 1343.5625 448.5 C1343.36237305 447.57460419 1343.16224609 446.64920837 1342.95605469 445.69577026 C1342.38959878 443.06290692 1341.83158916 440.42842677 1341.27734375 437.79296875 C1341.02494179 436.61556122 1341.02494179 436.61556122 1340.7674408 435.41436768 C1339.97120277 431.56695568 1339.625 428.27972842 1339.625 424.3125 C1347.215 424.3125 1354.805 424.3125 1362.625 424.3125 C1360.995625 422.91 1359.36625 421.5075 1357.6875 420.0625 C1343.03914913 406.91553982 1335.04392627 390.00834515 1330.0390625 371.23828125 C1329.62981052 369.75336212 1329.21932719 368.26878194 1328.80776978 366.78450012 C1327.64710458 362.5749154 1326.51153873 358.35892577 1325.38252258 354.1407547 C1324.58573069 351.16588575 1323.78461634 348.19220421 1322.98278809 345.21868896 C1318.93600249 330.19949255 1314.94235183 315.16638836 1310.96136475 300.12963867 C1309.04310149 292.88722363 1307.11996816 285.64610042 1305.19766617 278.40475655 C1303.65923389 272.60872543 1302.12188618 266.812412 1300.58734131 261.01535034 C1298.05949219 251.46803489 1295.527706 241.92215044 1292.94628906 232.38916016 C1292.55917549 230.95552093 1292.17209884 229.52187173 1291.7850647 228.08821106 C1291.10793428 225.58066638 1290.42452307 223.07514606 1289.7371521 220.57035828 C1289.45086945 219.51113663 1289.16458679 218.45191498 1288.86962891 217.3605957 C1288.62596588 216.46959671 1288.38230286 215.57859772 1288.1312561 214.66059875 C1287.625 212.3125 1287.625 212.3125 1287.625 208.3125 C1286.965 208.3125 1286.305 208.3125 1285.625 208.3125 C1285.5321875 209.33085938 1285.439375 210.34921875 1285.34375 211.3984375 C1284.51491374 218.02620912 1282.73791879 224.46648915 1281.125 230.9375 C1280.48671249 233.51233012 1279.85215921 236.08802168 1279.21875 238.6640625 C1278.93708984 239.79666504 1278.65542969 240.92926758 1278.36523438 242.09619141 C1277.66018183 245.15963543 1277.11262097 248.20794401 1276.625 251.3125 C1276.398125 252.570625 1276.17125 253.82875 1275.9375 255.125 C1275.98329978 258.13633538 1276.50295799 259.16718727 1278.46875 261.5078125 C1281.10418745 263.90139019 1283.82160858 266.11805718 1286.625 268.3125 C1288.62743521 269.93449822 1290.62750448 271.55942241 1292.625 273.1875 C1293.5325 273.90679688 1294.44 274.62609375 1295.375 275.3671875 C1297.625 277.3125 1297.625 277.3125 1299.625 280.3125 C1292.49868467 286.96263297 1285.06100313 293.05825933 1277.3359375 298.99121094 C1275.75491715 300.21217014 1274.18921788 301.45289986 1272.625 302.6953125 C1248.22466981 321.72491784 1218.45938929 332.1217038 1187.41503906 328.41625977 C1173.64863869 326.48452294 1161.87114487 321.63938728 1149.625 315.3125 C1137.75187605 361.25135691 1137.75187605 361.25135691 1138.32080078 408.13452148 C1138.94123467 412.93734045 1137.53866871 416.53026353 1135.73046875 420.93359375 C1135.42305252 421.71896011 1135.11563629 422.50432648 1134.79890442 423.31349182 C1134.15062395 424.9596426 1133.49379603 426.60245057 1132.82885742 428.24194336 C1131.80840846 430.76009666 1130.81533603 433.28777428 1129.82617188 435.81835938 C1129.19166337 437.41988945 1128.55564895 439.0208239 1127.91796875 440.62109375 C1127.61892136 441.37829208 1127.31987396 442.13549042 1127.01176453 442.91563416 C1124.8584719 448.19576405 1124.8584719 448.19576405 1122.625 449.3125 C1120.10228336 449.46427901 1117.60338012 449.55809279 1115.078125 449.60961914 C1114.2967366 449.62927231 1113.51534821 449.64892548 1112.71028137 449.66917419 C1110.098612 449.73350079 1107.48684122 449.79076513 1104.875 449.84765625 C1103.02790695 449.89079167 1101.18082044 449.93420814 1099.33374023 449.97789001 C1095.42617069 450.06918423 1091.5185418 450.15699824 1087.61083984 450.24243164 C1083.69178177 450.32832248 1079.77286019 450.41828915 1075.85400391 450.51293945 C1062.44516051 450.83675309 1049.03624872 451.10993618 1035.625 451.3125 C1034.18250885 451.33468723 1034.18250885 451.33468723 1032.71087646 451.35732269 C1026.99691183 451.44206116 1021.28330962 451.50466444 1015.56881714 451.53939629 C1013.81236329 451.55191364 1012.0559358 451.56943064 1010.29959106 451.59266853 C985.00604489 451.9102358 959.92418112 447.67067876 940.875 429.62890625 C927.64753416 416.01104646 923.15236013 401.24379788 923.11987305 382.54980469 C923.36797018 371.50455597 925.82705339 360.95809153 928.625 350.3125 C927.93277344 351.7665625 927.93277344 351.7665625 927.2265625 353.25 C919.76716996 368.68396334 911.26716642 382.6770453 899.625 395.3125 C898.76261719 396.25738281 897.90023438 397.20226563 897.01171875 398.17578125 C886.21271015 409.48674285 873.43225369 418.08454169 859.625 425.3125 C858.51382812 425.89515625 857.40265625 426.4778125 856.2578125 427.078125 C798.24327354 455.76237366 726.34663583 454.71336802 663.04223633 454.62817383 C659.30025262 454.6235254 655.55859276 454.63056223 651.81665039 454.64868164 C592.85644612 454.93104638 519.23070071 455.08123726 473.81640625 411.625 C460.64344337 397.83048179 452.99805295 380.94922419 449.625 362.3125 C449.44066406 361.31476563 449.25632812 360.31703125 449.06640625 359.2890625 C444.1448623 323.14168239 453.47643319 282.0985363 468.625 249.3125 C467.78727051 249.52455078 466.94954102 249.73660156 466.08642578 249.95507812 C462.98208012 250.73967875 459.87721239 251.52216871 456.77197266 252.30322266 C455.42735774 252.64189287 454.08295509 252.98140698 452.73876953 253.32177734 C450.808176 253.81048109 448.87675519 254.29591312 446.9453125 254.78125 C445.78273926 255.07451172 444.62016602 255.36777344 443.42236328 255.66992188 C440.625 256.3125 440.625 256.3125 438.625 256.3125 C437.4930296 261.11442502 436.36299697 265.91680164 435.23449707 270.71954346 C434.83243078 272.43003637 434.43001332 274.14044679 434.02722168 275.85076904 C428.39666436 299.76780204 423.00521607 323.71723157 418.1875 347.8125 C417.88304962 349.32733475 417.88304962 349.32733475 417.57244873 350.87277222 C415.34202418 362.00521409 413.2351765 373.16004103 411.27734375 384.34375 C411.09571182 385.33910767 410.9140799 386.33446533 410.72694397 387.35998535 C409.64224828 393.72298739 408.86130749 399.15255092 412.125 405 C415.23347315 411.86454488 415.37456596 419.97014827 413.41796875 427.21875 C409.78854162 436.80186795 402.45288021 443.45015963 393.625 448.3125 C383.46997384 452.38394238 373.14913377 452.46173688 362.36279297 452.45776367 C361.04787369 452.46112228 359.73295441 452.4644809 358.37818909 452.46794128 C354.78898959 452.47673181 351.19981398 452.47911737 347.61060476 452.47975707 C345.3611295 452.48047067 343.1116602 452.48261089 340.86218643 452.48525429 C332.99405791 452.49449312 325.12594627 452.49859123 317.2578125 452.49780273 C309.95747866 452.49720315 302.657219 452.50773535 295.35690391 452.5235464 C289.06272949 452.53668586 282.76857911 452.54198392 276.4743911 452.54134732 C272.72708086 452.54109411 268.97983654 452.54384655 265.23254013 452.55452538 C261.70137198 452.56431427 258.17033129 452.56421294 254.63915825 452.55700874 C252.75017035 452.55548956 250.86118216 452.56373463 248.97221375 452.57244873 C231.78607103 452.51032736 214.95494836 450.02314125 201.625 438.3125 C191.74791255 427.77060859 188.23132817 416.54976851 188.25 402.3125 C188.24871094 401.28318359 188.24742187 400.25386719 188.24609375 399.19335938 C188.39923543 387.70077228 190.35989609 376.55368055 192.625 365.3125 C192.18422119 365.89330322 191.74344238 366.47410645 191.28930664 367.07250977 C169.86091567 395.01494729 139.04688995 408.57353985 106.625 420.3125 C104.96645996 420.91553955 104.96645996 420.91553955 103.27441406 421.53076172 C67.87348133 434.24134239 31.05360568 441.83859649 -6.375 445.3125 C-7.35202881 445.40821289 -8.32905762 445.50392578 -9.33569336 445.60253906 C-21.59264317 446.65144298 -33.89464009 446.55629058 -46.1875 446.5625 C-47.98953384 446.56351212 -47.98953384 446.56351212 -49.82797241 446.56454468 C-69.19978088 446.54730323 -88.15615025 445.86022957 -107.375 443.3125 C-108.04499023 443.22528687 -108.71498047 443.13807373 -109.40527344 443.04821777 C-129.26689228 440.45610425 -148.87606188 436.9266907 -168.375 432.3125 C-169.57737305 432.03067871 -170.77974609 431.74885742 -172.01855469 431.45849609 C-242.47748563 414.72611687 -242.47748563 414.72611687 -264.375 394.3125 C-265.16132813 393.60480469 -265.94765625 392.89710938 -266.7578125 392.16796875 C-278.73118281 380.88612973 -285.88832576 365.10848486 -286.7109375 348.65625 C-286.95645045 335.59954737 -285.25607607 323.15295301 -283.04736328 310.3125 C-282.25475775 305.65307477 -281.53225813 300.98304564 -280.80859375 296.3125 C-280.53792586 294.5702307 -280.26725528 292.82796182 -279.99658203 291.08569336 C-279.86270081 290.22346161 -279.72881958 289.36122986 -279.59088135 288.47286987 C-279.4577655 287.61557281 -279.32464966 286.75827576 -279.1875 285.875 C-279.05535095 285.02310089 -278.9232019 284.17120178 -278.78704834 283.29348755 C-278.40888405 280.86319907 -278.02718114 278.43349197 -277.64453125 276.00390625 C-277.47442787 274.90411438 -277.47442787 274.90411438 -277.30088806 273.78210449 C-276.83675792 270.85026083 -276.31585777 268.1350733 -275.375 265.3125 C-268.97474395 265.95040113 -263.18326917 267.83965884 -257.09375 269.85546875 C-254.80708016 270.60060472 -252.52037621 271.34563601 -250.23364258 272.09057617 C-248.43438828 272.68012589 -248.43438828 272.68012589 -246.5987854 273.28158569 C-240.27339017 275.35124095 -233.94020841 277.39666411 -227.60546875 279.4375 C-226.96400091 279.64422522 -226.32253307 279.85095043 -225.66162682 280.06394005 C-150.1324046 304.93110154 -150.1324046 304.93110154 -71.375 311.3125 C-71.045 310.9825 -70.715 310.6525 -70.375 310.3125 C-71.15101563 309.71824219 -71.92703125 309.12398437 -72.7265625 308.51171875 C-80.40018962 302.62696162 -88.02273906 296.68068194 -95.61767578 290.69482422 C-97.34520902 289.33593381 -99.07625465 287.98166291 -100.80859375 286.62890625 C-109.14311904 280.11504119 -117.37439203 273.48113045 -125.56640625 266.7890625 C-127.1673548 265.48202459 -128.77097976 264.17826644 -130.375 262.875 C-136.87863654 257.58134235 -143.29561767 252.1911547 -149.67919922 246.75390625 C-151.37734846 245.31050384 -153.08090193 243.87368577 -154.78515625 242.4375 C-165.823787 233.10000138 -176.49062301 223.35899147 -186.6171875 213.03515625 C-188.48834049 211.20142632 -190.44137207 209.50882925 -192.4375 207.8125 C-195.74620338 204.95906395 -198.58996201 201.92458476 -201.40625 198.58984375 C-203.3041393 196.39446783 -205.27941811 194.28934634 -207.27685547 192.18481445 C-227.19833276 171.0393627 -242.03558671 144.21113704 -241.79248047 114.55810547 C-241.16917066 94.96108841 -233.69443111 77.65821894 -220.375 63.3125 C-219.61574219 62.47332031 -218.85648437 61.63414062 -218.07421875 60.76953125 C-167.02478316 6.87937421 -69.2955265 -0.19762488 0 0 Z M687.74609375 243.53515625 C668.15004237 269.19407436 661.10652551 310.7464991 665.12109375 342.19921875 C666.71190642 349.21856729 669.3435775 355.48683063 674.875 360.25 C681.79985978 362.92551401 688.66998469 362.85014072 695.625 360.3125 C714.25107487 351.47705423 725.51174739 334.01444341 732.625 315.3125 C739.82858742 294.20567391 747.61904942 260.476936 738.625 239.3125 C735.96668 235.84998235 732.8918232 234.11955119 728.625 233.3125 C713.40866363 232.185997 698.69872944 231.48920934 687.74609375 243.53515625 Z " fill="#FEFDFD" transform="translate(441.375,875.6875)"/>
<path d="M0 0 C3.07395356 0.00008089 6.1477569 -0.00681751 9.22167969 -0.02050781 C28.97819248 -0.10692205 48.502265 0.42861758 68.19750977 2.18530273 C70.40673107 2.37492125 72.61595958 2.56445591 74.82519531 2.75390625 C144.2064808 8.81432458 144.2064808 8.81432458 162.19750977 17.18530273 C163.05989258 17.57459961 163.92227539 17.96389648 164.81079102 18.36499023 C173.71910326 22.8268392 181.98894626 30.06408146 186.19750977 39.18530273 C186.5880957 40.00256836 186.97868164 40.81983398 187.38110352 41.66186523 C195.0025282 61.22967532 189.85788455 83.84067084 184.19750977 103.18530273 C179.62592966 102.55883096 175.09944273 101.82331516 170.56860352 100.95092773 C169.30419434 100.70930908 168.03978516 100.46769043 166.73706055 100.21875 C166.07095764 100.09122345 165.40485474 99.9636969 164.71856689 99.83230591 C158.89444442 98.72257147 153.06417202 97.64524771 147.23468018 96.56414795 C145.39027612 96.2211508 143.54653795 95.8745777 141.70288086 95.52758789 C108.05389203 89.26177438 72.96593839 83.65261367 38.69750977 83.43530273 C37.52712158 83.42007568 36.3567334 83.40484863 35.15087891 83.38916016 C27.9379361 83.52689693 22.20814607 85.07326425 16.19750977 89.18530273 C14.58370781 92.41290664 14.79815329 94.59109442 15.19750977 98.18530273 C18.78075841 105.111222 24.15827953 110.55892184 29.66210938 115.97460938 C30.49054855 116.80188034 31.31898773 117.62915131 32.17253113 118.48149109 C34.8913826 121.19320077 37.6205917 123.89423091 40.34985352 126.59545898 C42.25338417 128.49084366 44.15625959 130.38686308 46.0582428 132.28379822 C50.54527609 136.75640091 55.03947468 141.22172462 59.53673416 145.68404239 C67.58225485 153.66750275 75.61559981 161.6632056 83.64607817 169.66179365 C86.90893138 172.91102379 90.17690439 176.15504853 93.4462738 179.39772034 C95.16544064 181.10685703 96.88452556 182.81607614 98.60351562 184.52539062 C99.37308594 185.28665253 100.14265625 186.04791443 100.93554688 186.83224487 C105.01501569 190.8950437 108.91855238 195.04399798 112.65959263 199.42141628 C115.15212506 202.28018161 117.83967195 204.93206546 120.54125977 207.59155273 C121.11404663 208.16055298 121.6868335 208.72955322 122.27697754 209.3157959 C124.08136227 211.10813255 125.88898336 212.8971459 127.69750977 214.68530273 C141.88049827 228.7085472 141.88049827 228.7085472 146.78686523 234.57421875 C148.36640658 236.37819821 150.06626787 237.99167569 151.82250977 239.62280273 C168.65147548 256.32105803 182.98011183 278.54655533 183.51000977 302.81030273 C183.35974378 317.11562422 176.86090234 329.64272141 167.07250977 339.87280273 C148.07626121 357.81655643 123.31451296 367.25294555 99.19750977 376.18530273 C98.25955566 376.53608887 97.32160156 376.886875 96.35522461 377.24829102 C75.78603919 384.89595641 54.7217556 390.0297458 33.19750977 394.18530273 C32.39410156 394.3412793 31.59069336 394.49725586 30.76293945 394.65795898 C5.8739725 399.43148008 -18.88292519 400.42315742 -44.17749023 400.43530273 C-45.44227203 400.43597748 -46.70705383 400.43665222 -48.01016235 400.43734741 C-107.29040967 400.38722385 -206.08185638 395.46218729 -251.33764648 351.01342773 C-259.42149121 341.73814473 -262.20204849 331.5195089 -262.11499023 319.43530273 C-262.11152588 318.62673828 -262.10806152 317.81817383 -262.10449219 316.98510742 C-261.84867265 302.22389617 -258.91922711 287.57534321 -255.80249023 273.18530273 C-251.77759242 271.58335336 -248.91599977 272.85856359 -244.92749023 274.18530273 C-243.48608747 274.65536551 -242.04468102 275.12541696 -240.60327148 275.59545898 C-239.82935059 275.85214355 -239.05542969 276.10882812 -238.25805664 276.37329102 C-233.88640147 277.81891888 -229.50101978 279.22150051 -225.11499023 280.62280273 C-224.18243408 280.9212207 -223.24987793 281.21963867 -222.2890625 281.52709961 C-215.14981449 283.79558847 -207.97236314 285.89389121 -200.75976562 287.91552734 C-195.28320424 289.4561763 -189.8455928 291.09220775 -184.41625977 292.79150391 C-172.27173637 296.58187903 -160.03829808 299.70202385 -147.63696289 302.53295898 C-145.09737235 303.11743667 -142.56469652 303.72413475 -140.03295898 304.34155273 C-135.6423636 305.39722299 -131.23683018 306.33247192 -126.80249023 307.18530273 C-126.02518555 307.33628418 -125.24788086 307.48726562 -124.44702148 307.64282227 C-110.73747238 310.16840891 -97.07430268 310.47435889 -83.17749023 310.49780273 C-82.31540955 310.50138794 -81.45332886 310.50497314 -80.56512451 310.50866699 C-61.84241601 310.85277203 -61.84241601 310.85277203 -44.23999023 305.37280273 C-42.81493164 304.65157227 -42.81493164 304.65157227 -41.36108398 303.91577148 C-38.47683902 301.96505313 -36.72612617 300.08186308 -34.80249023 297.18530273 C-34.20814335 292.50482105 -34.22761591 290.31205642 -36.36499023 286.12280273 C-41.53560811 279.89154529 -47.3145755 274.8111982 -53.80249023 269.99780273 C-55.31005481 268.86248242 -56.81654452 267.72573359 -58.32202148 266.58764648 C-59.07306152 266.02029785 -59.82410156 265.45294922 -60.59790039 264.8684082 C-63.93793679 262.31844021 -67.2174867 259.69606701 -70.48999023 257.06030273 C-75.26136705 253.22135052 -80.04649909 249.40251277 -84.86499023 245.62280273 C-85.72471436 244.94773682 -85.72471436 244.94773682 -86.60180664 244.2590332 C-89.50743496 241.97925773 -92.41782021 239.70580576 -95.33374023 237.43920898 C-101.73583444 232.45224012 -108.02454139 227.36774086 -114.19384766 222.0949707 C-117.30828626 219.43603715 -120.45980638 216.84303409 -123.67749023 214.31030273 C-134.23888333 205.92633971 -144.25222352 196.87113985 -154.13720703 187.70727539 C-155.41353496 186.54078539 -156.70097783 185.38644683 -157.99316406 184.23754883 C-164.4883417 178.45850123 -170.71588236 172.45512552 -176.86499023 166.31030273 C-177.79375977 165.3937793 -178.7225293 164.47725586 -179.67944336 163.53295898 C-199.44749403 143.80652527 -216.8878529 120.41634911 -217.36499023 91.49780273 C-217.20287434 76.19620317 -209.88376109 63.60832788 -199.67749023 52.56030273 C-172.31468164 27.20577367 -134.4493724 16.61663199 -98.80249023 9.18530273 C-97.77317383 8.96986816 -96.74385742 8.75443359 -95.68334961 8.5324707 C-83.9651207 6.10930073 -72.23624829 3.95904157 -60.36499023 2.43530273 C-59.48020996 2.31977051 -58.59542969 2.20423828 -57.68383789 2.08520508 C-38.54218851 -0.20456565 -19.24514801 -0.00261729 0 0 Z " fill="#CC2229" transform="translate(439.802490234375,898.814697265625)"/>
<path d="M0 0 C5.39493527 5.83792116 5.83391987 12.17713769 5.71484375 19.83203125 C4.34004653 32.79440505 -4.46787439 43.52829185 -11.80126953 53.81396484 C-14.38997695 57.45765687 -16.93337441 61.13214198 -19.47949219 64.80566406 C-21.5001963 67.71985668 -23.52658341 70.63001582 -25.5546875 73.5390625 C-28.96609181 78.43298162 -32.37237682 83.3304349 -35.77709961 88.22900391 C-46.71105018 103.95789634 -57.683226 119.6594888 -68.7421875 135.30078125 C-70.70680741 138.07945569 -72.66750882 140.86083045 -74.625 143.64453125 C-81.34921524 153.20167945 -88.15751845 162.69483721 -95.01367188 172.15771484 C-97.79715084 176.00019747 -100.57664011 179.84555978 -103.35546875 183.69140625 C-104.17241211 184.8215918 -104.17241211 184.8215918 -105.00585938 185.97460938 C-107.82388838 189.87623357 -110.62998971 193.78576848 -113.41821289 197.70874023 C-119.4613118 206.20983824 -125.65327625 214.59893851 -131.85351562 222.98583984 C-134.21417105 226.18060199 -136.57048842 229.37854695 -138.92626953 232.5769043 C-140.09095251 234.15805858 -141.25599379 235.73894899 -142.42138672 237.31958008 C-145.31877469 241.24956067 -148.21227238 245.18228964 -151.09765625 249.12109375 C-163.2903357 265.74920673 -175.81388972 282.11707184 -188.5 298.37109375 C-191.26689855 301.91873853 -194.00160441 305.48944076 -196.73046875 309.06640625 C-200.97861579 314.60292576 -205.36025528 320.02106152 -209.77709961 325.42358398 C-213.33755426 329.78397611 -216.83552192 334.1865506 -220.29296875 338.62890625 C-224.30518009 343.77489273 -228.44277806 348.79374728 -232.68188477 353.75415039 C-235.58435346 357.15083304 -238.4240949 360.58926466 -241.23046875 364.06640625 C-245.10726644 368.83091433 -249.18268407 373.37784515 -253.33984375 377.8984375 C-255.27491137 380.01207679 -257.17005172 382.14800473 -259.04296875 384.31640625 C-270.19269514 397.10733069 -281.69377086 409.96694892 -295.04296875 420.50390625 C-295.60161621 420.94492676 -296.16026367 421.38594727 -296.73583984 421.84033203 C-302.8915321 426.56548897 -308.1780403 430.20336358 -316.1953125 429.81640625 C-330.56948707 427.63643665 -342.84680394 412.16855805 -350.9921875 401.21875 C-356.01830392 394.25623661 -360.37536331 386.87060474 -364.66796875 379.44140625 C-365.25360596 378.437146 -365.25360596 378.437146 -365.85107422 377.41259766 C-385.50683747 343.32839562 -396.65621886 303.50660608 -405.66796875 265.44140625 C-406.00586426 264.0342334 -406.00586426 264.0342334 -406.35058594 262.59863281 C-407.16855546 259.09121377 -407.66796875 256.06397235 -407.66796875 252.44140625 C-406.73750732 252.42682373 -405.8070459 252.41224121 -404.84838867 252.3972168 C-367.67249146 251.74694305 -330.25358164 248.40332215 -301.66796875 221.44140625 C-293.14010608 212.46512487 -293.14010608 212.46512487 -289.48046875 201.06640625 C-289.54234375 200.20015625 -289.60421875 199.33390625 -289.66796875 198.44140625 C-296.5985281 197.6123474 -300.47219986 200.29542904 -306.16796875 204.00390625 C-317.03474845 210.80151736 -328.195933 217.08718452 -340.66796875 220.44140625 C-341.34859375 220.64507813 -342.02921875 220.84875 -342.73046875 221.05859375 C-359.38279694 225.27949638 -377.0969171 222.99992565 -392.04296875 214.69140625 C-410.52058899 202.53834059 -418.5339061 186.88741534 -423.95703125 166.14794922 C-424.72269972 163.23304513 -425.5060197 160.3232918 -426.29296875 157.4140625 C-428.68478262 148.57151716 -431.05711107 139.72376955 -433.42578125 130.875 C-434.0062333 128.70956112 -434.58696175 126.5441963 -435.16796875 124.37890625 C-435.45583252 123.30592285 -435.74369629 122.23293945 -436.0402832 121.12744141 C-438.04747808 113.67406898 -440.12716368 106.24314111 -442.23046875 98.81640625 C-444.8252855 89.64498436 -447.19944503 80.43595854 -449.46899414 71.17919922 C-451.27613443 63.86289531 -453.29848525 56.62894236 -455.41162109 49.39599609 C-457.66771646 41.6039605 -459.6470209 33.75172036 -461.57617188 25.87304688 C-461.80626953 24.93396484 -462.03636719 23.99488281 -462.2734375 23.02734375 C-462.49821777 22.10920898 -462.72299805 21.19107422 -462.95458984 20.24511719 C-463.92778405 16.42028409 -465.01054414 12.62849608 -466.1105957 8.83837891 C-466.66796875 6.44140625 -466.66796875 6.44140625 -466.66796875 2.44140625 C-453.69103846 -1.92489172 -440.22343321 -4.05937798 -426.73950195 -6.22277832 C-424.64061912 -6.56302739 -422.54393387 -6.91493607 -420.44726562 -7.26855469 C-380.52721023 -13.92612697 -326.83396812 -20.55620092 -291.04296875 2.81640625 C-279.56481328 11.66250193 -274.60625517 21.44859046 -272.26171875 35.48046875 C-272.0551062 36.65316315 -271.84849365 37.82585754 -271.63562012 39.03408813 C-270.96831448 42.8346345 -270.31803813 46.63787762 -269.66796875 50.44140625 C-269.22012148 53.01033062 -268.77089706 55.57901527 -268.3203125 58.14746094 C-268.0948877 59.43336121 -267.86946289 60.71926147 -267.63720703 62.04412842 C-267.17737327 64.66463424 -266.71743924 67.28512219 -266.25732422 69.90557861 C-266.08550629 70.88442457 -266.08550629 70.88442457 -265.91021729 71.8830452 C-265.67844768 73.20296386 -265.44647346 74.52284662 -265.21429443 75.84269333 C-264.62640162 79.18798077 -264.04361667 82.53403211 -263.47021484 85.88183594 C-262.7902371 89.84963375 -262.08884315 93.81340507 -261.38671875 97.77734375 C-261.08803894 99.55109879 -261.08803894 99.55109879 -260.7833252 101.36068726 C-259.20964676 110.1141763 -257.25363588 120.80075734 -251.29296875 127.75390625 C-247.69851628 130.0646257 -245.88222436 130.15568686 -241.66796875 129.44140625 C-231.97713784 125.10251351 -225.581326 116.33578222 -219.48046875 108.00390625 C-218.15911178 106.21725737 -216.83749399 104.43080135 -215.515625 102.64453125 C-214.86609863 101.76345703 -214.21657227 100.88238281 -213.54736328 99.97460938 C-211.85484576 97.69329452 -210.14231745 95.43007347 -208.4140625 93.17578125 C-183.70135744 61.08497696 -183.70135744 61.08497696 -176.66796875 22.44140625 C-178.00451895 17.71054786 -180.09411241 13.50713945 -182.41796875 9.19140625 C-183.91151905 5.90559559 -184.27495849 4.00747098 -183.66796875 0.44140625 C-178.21170232 -6.71994344 -169.92029335 -9.11759834 -161.41796875 -10.68359375 C-160.53866699 -10.84972168 -159.65936523 -11.01584961 -158.75341797 -11.18701172 C-149.42278964 -12.88182312 -140.1245189 -13.89966009 -130.66796875 -14.55859375 C-129.38229004 -14.64882812 -128.09661133 -14.7390625 -126.77197266 -14.83203125 C-23.4715594 -21.87252372 -23.4715594 -21.87252372 0 0 Z " fill="#CC2229" transform="translate(2216.66796875,1071.55859375)"/>
<path d="M0 0 C2.30866506 -0.00067593 4.61733005 -0.00164835 6.92599487 -0.00289917 C11.73143196 -0.00436197 16.53685028 -0.00226729 21.34228516 0.00244141 C27.45514987 0.00814428 33.5679707 0.00484703 39.68083382 -0.00113106 C44.43733034 -0.00476972 49.19381671 -0.00358311 53.95031357 -0.00100327 C56.20262533 -0.00034345 58.45493806 -0.00112874 60.70724869 -0.00348282 C73.36701481 -0.01381849 85.9258766 0.21061401 98.5546875 1.1328125 C100.41011849 1.25318759 102.26557825 1.37312212 104.12109375 1.4921875 C115.52544476 2.34294019 126.81659267 3.78311398 138.1171875 5.5078125 C139.11674973 5.65639709 139.11674973 5.65639709 140.13650513 5.8079834 C149.52494085 7.21603862 158.49879942 9.28841088 167.5546875 12.1328125 C168.42939697 12.40706055 169.30410645 12.68130859 170.20532227 12.96386719 C189.31267673 19.17948901 206.33892229 28.69462396 216.10546875 47.046875 C226.67894611 69.69095925 222.83851363 93.57807181 217.5546875 117.1328125 C217.29896973 118.3086792 217.29896973 118.3086792 217.03808594 119.50830078 C208.80005106 157.06919229 191.65720221 195.32495214 158.5546875 217.1328125 C149.04503217 223.13019943 139.07644583 228.15930751 128.5546875 232.1328125 C127.4723584 232.54611816 127.4723584 232.54611816 126.36816406 232.96777344 C115.54949527 237.02307887 104.60624483 239.99574471 93.3046875 242.3828125 C92.21341553 242.61677734 91.12214355 242.85074219 89.99780273 243.09179688 C69.5851836 247.18870095 48.80662657 248.6424235 28.0546875 249.7578125 C25.92313886 249.87954088 23.79162823 250.00193655 21.66015625 250.125 C15.29292995 250.48737954 8.92449857 250.81929928 2.5546875 251.1328125 C1.53595551 251.18300537 0.51722351 251.23319824 -0.53237915 251.28491211 C-17.39824265 252.09243929 -34.24853602 252.37224722 -51.1328125 252.3828125 C-52.41402985 252.38415192 -53.69524719 252.38549133 -55.01528931 252.38687134 C-76.63929156 252.38200088 -97.95316281 251.44913348 -119.4453125 249.1328125 C-121.69787797 248.91366439 -123.95047951 248.6948865 -126.203125 248.4765625 C-160.10810548 244.94862986 -196.36749637 235.87719755 -219.4453125 209.1328125 C-234.50243846 188.45057156 -234.96798764 160.45325163 -231.76171875 135.9140625 C-230.9073764 130.59168341 -229.7458354 125.36224242 -228.4453125 120.1328125 C-228.22037109 119.20791016 -227.99542969 118.28300781 -227.76367188 117.33007812 C-221.55655387 92.21091463 -212.66663826 68.84493654 -195.4453125 49.1328125 C-194.85363281 48.4521875 -194.26195312 47.7715625 -193.65234375 47.0703125 C-191.99555191 45.30306787 -190.27856912 43.71674622 -188.4453125 42.1328125 C-187.59453125 41.3903125 -186.74375 40.6478125 -185.8671875 39.8828125 C-137.094706 -0.13563386 -60.15168445 -0.06300138 0 0 Z M-16.32421875 63.35546875 C-35.92027013 89.01438686 -42.96378699 130.5668116 -38.94921875 162.01953125 C-37.35840608 169.03887979 -34.726735 175.30714313 -29.1953125 180.0703125 C-22.27045272 182.74582651 -15.40032781 182.67045322 -8.4453125 180.1328125 C10.18076237 171.29736673 21.44143489 153.83475591 28.5546875 135.1328125 C35.75827492 114.02598641 43.54873692 80.2972485 34.5546875 59.1328125 C31.8963675 55.67029485 28.8215107 53.93986369 24.5546875 53.1328125 C9.33835113 52.0063095 -5.37158306 51.30952184 -16.32421875 63.35546875 Z " fill="#CC2229" transform="translate(1145.4453125,1055.8671875)"/>
<path d="M0 0 C1.74622613 -0.00067671 3.49245217 -0.00164976 5.23867798 -0.00289917 C8.87071646 -0.00435969 12.50273007 -0.0022758 16.13476562 0.00244141 C20.73189978 0.00812904 25.3289754 0.00485514 29.92610741 -0.00113106 C33.52461162 -0.00478894 37.12310254 -0.00357429 40.72160721 -0.00100327 C42.41404859 -0.00034791 44.10649128 -0.00111217 45.79893112 -0.00348282 C57.66014404 -0.01645683 69.45011884 0.40641118 81.2890625 1.1328125 C81.17710541 1.72129974 81.06514832 2.30978699 80.94979858 2.91610718 C78.13149249 17.73591797 75.33293796 32.55934562 72.5546875 47.38671875 C71.78302666 51.50474987 71.00782997 55.62206229 70.2265625 59.73828125 C69.48715617 63.63686277 68.76036596 67.53754082 68.04571533 71.44073486 C67.67793036 73.43270249 67.29698355 75.42222622 66.91552734 77.41162109 C64.98492681 88.09295536 62.68897872 101.19516805 68.3984375 111.0390625 C73.72755719 116.94073224 81.92866763 119.67490574 89.69262695 120.33813477 C90.5043335 120.37479248 91.31604004 120.4114502 92.15234375 120.44921875 C93.03857422 120.49111328 93.92480469 120.53300781 94.83789062 120.57617188 C95.74990234 120.61548828 96.66191406 120.65480469 97.6015625 120.6953125 C98.99858398 120.76008789 98.99858398 120.76008789 100.42382812 120.82617188 C102.71210704 120.93178475 105.00048622 121.03389002 107.2890625 121.1328125 C107.37688792 124.65348601 107.42972893 128.17387394 107.4765625 131.6953125 C107.51426758 133.1812793 107.51426758 133.1812793 107.55273438 134.69726562 C107.64256377 143.71014779 105.63509624 149.66064746 99.39453125 156.3515625 C93.68105683 161.18522546 85.97977445 162.22343007 78.88183594 163.93066406 C62.9259466 167.40555948 62.9259466 167.40555948 51.2890625 178.1328125 C48.261473 184.72408027 46.23077625 191.47222654 44.5390625 198.5078125 C44.2922876 199.51529541 44.0455127 200.52277832 43.79125977 201.56079102 C35.23315421 236.93622089 28.2229215 272.5743818 22.09375 308.44335938 C21.58821358 311.39915071 21.0762445 314.35363456 20.5546875 317.30664062 C19.93342926 320.83011395 19.32739454 324.35580907 18.7265625 327.8828125 C18.45573853 329.38908203 18.45573853 329.38908203 18.17944336 330.92578125 C18.02870361 331.83457031 17.87796387 332.74335937 17.72265625 333.6796875 C17.58915771 334.45151367 17.45565918 335.22333984 17.31811523 336.01855469 C17.26665053 339.76380135 18.98249885 341.79018254 21.4140625 344.5078125 C23.2890625 347.1328125 23.2890625 347.1328125 23.8515625 350.0703125 C23.10399864 354.1403824 21.47380876 356.60153418 18.2890625 359.1328125 C11.03218987 362.8841989 3.18821552 362.56451336 -4.77685547 362.53686523 C-6.17904196 362.54257769 -7.58122381 362.54954532 -8.98339844 362.55766296 C-12.76867513 362.57551427 -16.55371898 362.57444109 -20.33902502 362.56872058 C-23.50973536 362.56561662 -26.68040175 362.57173463 -29.85110581 362.57775933 C-37.33713552 362.59177698 -44.82305105 362.59026671 -52.30908203 362.57885742 C-60.00779107 362.56738259 -67.70615149 362.58144734 -75.4048146 362.6082539 C-82.03698504 362.63047429 -88.66904655 362.63703395 -95.30125153 362.63117748 C-99.25251312 362.62782136 -103.20355139 362.63013257 -107.15478134 362.64742851 C-110.87322683 362.66299692 -114.59115961 362.65883398 -118.30958557 362.64012337 C-120.30768656 362.63473336 -122.30581113 362.64887651 -124.30386353 362.66381836 C-134.89299987 362.57802247 -144.25343538 360.69505789 -152.05078125 353.08984375 C-158.56140331 345.41496927 -158.41698363 336.74683369 -157.7109375 327.1328125 C-156.92407512 320.41329229 -155.59642942 313.77590028 -154.3359375 307.1328125 C-153.97745593 305.18839097 -153.6203141 303.24372204 -153.2644043 301.29882812 C-152.49890466 297.1263293 -151.726049 292.95528693 -150.94775391 288.78515625 C-149.65565326 281.85242299 -148.38985983 274.91502014 -147.12890625 267.9765625 C-146.91342133 266.79145081 -146.6979364 265.60633911 -146.47592163 264.38531494 C-145.39410669 258.43262661 -144.31426015 252.47958291 -143.23535156 246.52636719 C-142.81967337 244.2337218 -142.40398351 241.94107852 -141.98828125 239.6484375 C-141.68937485 237.99832672 -141.68937485 237.99832672 -141.38442993 236.31488037 C-140.394673 230.86033258 -139.39183089 225.4087707 -138.36083984 219.96186829 C-136.30926204 209.10973951 -134.31564353 198.39065439 -134.1484375 187.3203125 C-134.12595947 186.22541504 -134.12595947 186.22541504 -134.10302734 185.10839844 C-134.22485646 179.06854085 -136.18172999 173.73795464 -140.40234375 169.390625 C-141.01980469 169.01679687 -141.63726563 168.64296875 -142.2734375 168.2578125 C-143.03914062 167.78859375 -143.80484375 167.319375 -144.59375 166.8359375 C-147.1976461 165.41325743 -149.81512853 164.03731317 -152.453125 162.6796875 C-153.73014282 162.02009033 -153.73014282 162.02009033 -155.03295898 161.34716797 C-156.75994757 160.46279764 -158.49381059 159.59170986 -160.23461914 158.73486328 C-161.44299438 158.12360596 -161.44299438 158.12360596 -162.67578125 157.5 C-163.76814087 156.96028564 -163.76814087 156.96028564 -164.88256836 156.40966797 C-167.07115749 154.88125014 -167.75896041 153.6017858 -168.7109375 151.1328125 C-169.99070023 142.48697359 -167.90125655 133.1676901 -164.7109375 125.1328125 C-158.5332023 118.79106664 -147.98359982 119.2484033 -139.74023438 118.453125 C-130.38069631 117.41905174 -122.40476888 114.98602081 -115.7109375 108.1328125 C-112.3801358 101.98237175 -111.94812298 95.96264223 -111.3359375 89.0703125 C-110.29491544 78.76305796 -108.98546819 68.54470283 -107.3359375 58.3203125 C-107.15111816 57.1130249 -106.96629883 55.9057373 -106.77587891 54.66186523 C-104.26380059 39.5112186 -99.73146024 24.78958308 -86.9609375 15.2578125 C-74.51612627 7.31593297 -60.8353332 4.65683897 -46.4609375 2.5078125 C-45.65277588 2.3845459 -44.84461426 2.2612793 -44.01196289 2.13427734 C-29.42915326 0.07843814 -14.69795922 -0.02053036 0 0 Z " fill="#CC2229" transform="translate(809.7109375,942.8671875)"/>
<path d="M0 0 C1.01626465 -0.00315216 2.0325293 -0.00630432 3.07958984 -0.009552 C4.1773877 -0.00752777 5.27518555 -0.00550354 6.40625 -0.00341797 C8.12448975 -0.00485306 8.12448975 -0.00485306 9.87744141 -0.00631714 C12.31184951 -0.00699832 14.74625943 -0.00514836 17.18066406 -0.00097656 C20.8366324 0.00429417 24.4924734 -0.00088243 28.1484375 -0.00732422 C38.86973985 -0.01102402 49.57812941 0.0488184 60.2890625 0.55517578 C61.08594482 0.59129974 61.88282715 0.62742371 62.70385742 0.66464233 C71.06895526 1.12147413 78.35557683 2.67050022 84.90625 8.12939453 C88.68098211 12.40080192 89.19241074 15.26900025 89.08651733 20.69869995 C88.79973525 24.56562158 87.90173779 28.17975043 86.89453125 31.91455078 C86.68578873 32.725215 86.4770462 33.53587921 86.26197815 34.37110901 C85.81792977 36.09328872 85.36940384 37.81431939 84.91668701 39.53424072 C83.73965083 44.01624215 82.60428149 48.50880942 81.46484375 53.00048828 C81.12842865 54.32222046 81.12842865 54.32222046 80.78521729 55.6706543 C72.66387903 82.0301723 72.66387903 82.0301723 76.55078125 108.15283203 C78.90661092 111.58813408 81.77887512 114.39733389 84.90625 117.12939453 C81.40849331 120.84209716 77.79543003 123.78217391 73.46875 126.50439453 C72.85459229 126.89087158 72.24043457 127.27734863 71.60766602 127.67553711 C50.56717866 140.70597298 27.405234 148.42573851 2.65625 142.62939453 C-13.85155395 138.19551453 -27.63361067 128.53543345 -40 117.01220703 C-42.15009772 114.98790252 -42.15009772 114.98790252 -45.09375 113.12939453 C-45.22048096 114.1094043 -45.34721191 115.08941406 -45.4777832 116.09912109 C-46.08325417 120.32424825 -46.99584688 124.45542115 -47.94921875 128.61376953 C-48.13143478 129.41878906 -48.31365082 130.22380859 -48.50138855 131.05322266 C-48.89084059 132.77252476 -49.28150241 134.49155321 -49.67327881 136.21032715 C-50.28811474 138.90953158 -50.89878246 141.60964874 -51.50830078 144.31005859 C-53.29741227 152.23227833 -55.09707091 160.15192101 -56.91796875 168.06689453 C-59.87919347 181.02067372 -62.50927453 193.92834225 -64.09375 207.12939453 C-64.1872876 207.89711182 -64.2808252 208.6648291 -64.37719727 209.45581055 C-66.33329641 226.99027627 -68.30354971 247.31644491 -57.09375 262.12939453 C-57.09375 262.78939453 -57.09375 263.44939453 -57.09375 264.12939453 C-58.31666748 264.15445068 -59.53958496 264.17950684 -60.79956055 264.20532227 C-65.44610719 264.30128427 -70.09256769 264.40100042 -74.73901367 264.50170898 C-76.72955272 264.54435997 -78.72011233 264.58606457 -80.71069336 264.62670898 C-94.63376333 264.91069103 -94.63376333 264.91069103 -108.54548645 265.51641846 C-122.46131573 266.28370772 -136.37514928 266.31682304 -150.30761719 266.31469727 C-153.89862683 266.31459476 -157.48944269 266.32838575 -161.08040619 266.34546947 C-163.8997483 266.35668091 -166.71904427 266.3586139 -169.53840637 266.35808754 C-171.49286373 266.35980219 -173.44730672 266.370553 -175.4017334 266.38163757 C-193.54437851 266.3356044 -210.10955901 263.05770966 -223.8671875 250.51220703 C-231.75336445 242.14565382 -234.50451394 231.55804691 -234.41503906 220.38378906 C-234.01765979 212.8899409 -231.97065028 205.61173856 -230.16323853 198.35839844 C-229.21125556 194.53189294 -228.29810271 190.69642001 -227.38233948 186.8611145 C-226.92342995 184.94036515 -226.46286066 183.02001156 -226.00059509 181.10006714 C-221.30182723 161.58095928 -217.61981132 141.93064338 -214.34375 122.12939453 C-214.19459137 121.23808838 -214.04543274 120.34678223 -213.89175415 119.4284668 C-211.07293334 102.48538992 -208.65879529 85.34293841 -208.84375 68.12939453 C-208.85051758 67.16936523 -208.85728516 66.20933594 -208.86425781 65.22021484 C-209.0185545 54.60962614 -210.32061213 45.16608492 -214.2890625 35.27392578 C-215.09375 33.12939453 -215.09375 33.12939453 -215.09375 31.12939453 C-210.12878218 28.6786019 -204.8920441 28.29362032 -199.46875 27.62939453 C-193.9386899 26.93527664 -188.44209887 26.22462907 -182.96875 25.16455078 C-176.03230451 23.86574369 -169.0335771 23.10632295 -162.02441406 22.32446289 C-159.72927147 22.0680699 -157.43493508 21.80523181 -155.140625 21.54150391 C-69.28407125 11.75905108 -69.28407125 11.75905108 -38.9140625 34.61376953 C-37.09375 36.12939453 -37.09375 36.12939453 -35.09375 38.12939453 C-34.87460938 37.09041016 -34.65546875 36.05142578 -34.4296875 34.98095703 C-31.67220006 22.57970815 -27.87537287 12.72094921 -17.09375 5.12939453 C-11.4657929 1.77308557 -6.59085637 0.00589108 0 0 Z " fill="#CC2229" transform="translate(1621.09375,1037.87060546875)"/>
<path d="M0 0 C1.13163574 0.00499512 2.26327148 0.00999023 3.42919922 0.01513672 C14.76392211 0.24962592 26.63068928 1.97826178 35.57421875 9.6328125 C50.21431048 25.94508254 48.14805993 47.37817274 47.12988281 67.92382812 C46.79826345 72.17784977 46.06977007 76.31619939 45.25 80.5 C45.08870605 81.37930176 44.92741211 82.25860352 44.76123047 83.16455078 C40.17863567 108.02686807 32.96401938 132.62540693 15.25 151.5 C14.09757812 152.78777344 14.09757812 152.78777344 12.921875 154.1015625 C1.56518355 166.2275782 -13.21811655 174.31748003 -29.96459961 175.09008789 C-42.55989027 175.26790668 -52.27059697 172.13601387 -61.4921875 163.2109375 C-68.37108016 154.95150583 -71.72835017 144.93482334 -73.75 134.5 C-73.92128418 133.73381348 -74.09256836 132.96762695 -74.26904297 132.17822266 C-80.56020365 97.14571876 -68.27556868 51.80543447 -48.74609375 22.4921875 C-36.37437924 6.14652832 -20.10009953 -0.11736845 0 0 Z M-28.62890625 33.72265625 C-48.22495763 59.38157436 -55.26847449 100.9339991 -51.25390625 132.38671875 C-49.66309358 139.40606729 -47.0314225 145.67433063 -41.5 150.4375 C-34.57514022 153.11301401 -27.70501531 153.03764072 -20.75 150.5 C-2.12392513 141.66455423 9.13674739 124.20194341 16.25 105.5 C23.45358742 84.39317391 31.24404942 50.664436 22.25 29.5 C19.59168 26.03748235 16.5168232 24.30705119 12.25 23.5 C-2.96633637 22.373497 -17.67627056 21.67670934 -28.62890625 33.72265625 Z " fill="#FEFDFD" transform="translate(1157.75,1085.5)"/>
</svg>
